<?xml version="1.0" encoding="UTF-8"?><svg id="Layer_2" xmlns="http://www.w3.org/2000/svg" width="336" height="335" viewBox="0 0 336 335"><defs><style>.cls-1{fill:red;}</style></defs><g id="Layer_1-2"><path class="cls-1" d="m0,167c0,92,76,168,168,168s168-76,168-168S260,0,168,0,0,75,0,167Zm230,78c-39-24-89-30-147-17-14,2-16-18-4-20,64-15,118-8,162,19,11,7,0,24-11,18Zm17-45c-45-28-114-36-167-20-17,5-23-21-7-25,61-18,136-9,188,23,14,9,0,31-14,22Zm-175-71c-17,6-28-23-9-30,59-18,159-15,221,22,17,9,1,37-17,27-54-32-144-35-195-19Z"/></g></svg>